# xmcd CD database file
#
# Track frame offsets:
#	150
#	12646
#	19305
#	33456
#	41093
#	55000
#	71136
#	85011
#	103143
#	113239
#	120789
#	127866
#	138450
#	149668
#	164404
#	176761
#	185847
#	218280
#	229801
#
# Disc length: 3426 seconds
#
# Revision: 0
# Processed by: cddbd v1.4PL0 Copyright (c) Steve Scherf et al.
# Submitted via: CDex 1.50
#
DISCID=110d6013
DTITLE=Johnny Cash  - At Folsom Prison 
DYEAR=1968
DGENRE=Country
TTITLE0=Folsom Prison Blues
TTITLE1=Busted 
TTITLE2=Dark As A Dungeon 
TTITLE3=I Still Miss Someone 
TTITLE4=Cocaine Blues 
TTITLE5=25 Minutes To Go 
TTITLE6=Orange Blossom Special 
TTITLE7=The Long Black Veil 
TTITLE8=Send A Picture Of Mother 
TTITLE9=The Wall 
TTITLE10=Dirty Old Egg-Suckin' Dog 
TTITLE11=Flushed From The Bathroom Of Your Heart 
TTITLE12=Joe Bean 
TTITLE13=Jackson 
TTITLE14=Give My Love To Rose 
TTITLE15=I Got Stripes 
TTITLE16=The Legend Of John Henry's Hammer 
TTITLE17=Green, Green Grass Of Home 
TTITLE18=Greystone Chapel 
EXTD=YEAR: 1968
EXTT0=
EXTT1=
EXTT2=
EXTT3=
EXTT4=
EXTT5=
EXTT6=
EXTT7=
EXTT8=
EXTT9=
EXTT10=
EXTT11=
EXTT12=
EXTT13=
EXTT14=
EXTT15=
EXTT16=
EXTT17=
EXTT18=
PLAYORDER=
